<svg width="45" height="31" viewBox="0 0 45 31" fill="none" xmlns="http://www.w3.org/2000/svg">
<path d="M30.0956 26.3212H15.1423C14.9421 27.585 14.2975 28.7357 13.3246 29.5667C12.3516 30.3976 11.1141 30.8541 9.83463 30.8541C8.55513 30.8541 7.31761 30.3976 6.34466 29.5667C5.37171 28.7357 4.72718 27.585 4.52699 26.3212H2.65551C2.17743 26.3181 1.7201 26.1255 1.38376 25.7858C1.04743 25.446 0.859544 24.9868 0.861345 24.5087V1.81345C0.859288 1.3352 1.04704 0.875671 1.38341 0.535685C1.71977 0.195698 2.17726 0.00306626 2.65551 0H27.3421C27.8202 0.00306616 28.2776 0.19567 28.6138 0.535685C28.95 0.875699 29.1376 1.33529 29.1353 1.81345V3.65403H36.0153C36.093 3.6537 36.1703 3.66378 36.2453 3.68398C38.4675 3.87722 39.5853 5.03653 40.7641 7.02877L44.2026 12.9166C44.2846 13.0564 44.328 13.2155 44.3283 13.3775V25.414C44.3293 25.6532 44.2353 25.8828 44.067 26.0528C43.8987 26.2227 43.6698 26.319 43.4307 26.3203H40.7119C40.5117 27.584 39.8672 28.7348 38.8942 29.5657C37.9213 30.3967 36.6837 30.8532 35.4042 30.8532C34.1247 30.8532 32.8872 30.3967 31.9143 29.5657C30.9413 28.7348 30.2968 27.584 30.0966 26.3203L30.0956 26.3212ZM31.8135 25.414C31.8211 26.1222 32.038 26.8122 32.437 27.3973C32.836 27.9824 33.3991 28.4364 34.0556 28.7022C34.712 28.968 35.4324 29.0336 36.1261 28.8909C36.8197 28.7481 37.4557 28.4033 37.9538 27.9C38.452 27.3966 38.7901 26.7571 38.9256 26.062C39.0611 25.3669 38.9879 24.6472 38.7153 23.9935C38.4427 23.3399 37.9828 22.7817 37.3935 22.3888C36.8043 21.996 36.112 21.7862 35.4038 21.7859C34.4469 21.7921 33.5316 22.1777 32.8585 22.8578C32.1854 23.5379 31.8096 24.4572 31.8135 25.414ZM6.24485 25.414C6.25247 26.1222 6.46941 26.8122 6.86837 27.3973C7.26733 27.9824 7.83048 28.4364 8.48692 28.7022C9.14336 28.968 9.86376 29.0336 10.5574 28.8909C11.2511 28.7481 11.887 28.4033 12.3852 27.9C12.8833 27.3966 13.2214 26.7571 13.3569 26.062C13.4924 25.3669 13.4193 24.6472 13.1467 23.9935C12.874 23.3399 12.4142 22.7817 11.8249 22.3888C11.2356 21.996 10.5433 21.7862 9.8351 21.7859C8.87809 21.7918 7.96251 22.1772 7.28924 22.8573C6.61597 23.5375 6.24002 24.457 6.24388 25.414H6.24485ZM40.71 24.5078H42.5321V19.0797H39.8887C39.7703 19.0792 39.6531 19.0555 39.5438 19.0096C39.4346 18.9638 39.3354 18.8968 39.2521 18.8127C39.1687 18.7285 39.1028 18.6287 39.058 18.519C39.0132 18.4093 38.9905 18.2919 38.9911 18.1734V16.389C38.9908 15.6927 39.2571 15.0228 39.7351 14.5166H33.5719C33.4973 14.5165 33.423 14.507 33.3507 14.4885C32.6698 14.4278 32.0364 14.1139 31.5759 13.6087C31.1154 13.1034 30.8613 12.4437 30.8637 11.7601V7.21913C30.8631 7.10062 30.8858 6.98305 30.9306 6.87333C30.9753 6.7636 31.0413 6.6639 31.1246 6.57965C31.208 6.49541 31.3071 6.42839 31.4163 6.38246C31.5256 6.33652 31.6428 6.31256 31.7613 6.31193H38.025C37.6923 6.00404 37.2987 5.76921 36.8697 5.62292C36.4406 5.47664 35.9857 5.422 35.5342 5.46252H29.1353V24.5038H30.0956C30.2958 23.24 30.9404 22.0892 31.9133 21.2583C32.8863 20.4273 34.1238 19.9708 35.4033 19.9708C36.6828 19.9708 37.9203 20.4273 38.8932 21.2583C39.8662 22.0892 40.5107 23.24 40.7109 24.5038L40.71 24.5078ZM15.1413 24.5078H27.3411V1.81251H2.65551V24.5078H4.52699C4.72718 23.244 5.37171 22.093 6.34466 21.262C7.31761 20.4311 8.55513 19.9746 9.83463 19.9746C11.1141 19.9746 12.3516 20.4311 13.3246 21.262C14.2975 22.093 14.9421 23.244 15.1423 24.5078H15.1413ZM40.7853 16.3918V17.2702H42.5321V15.4856H41.6829C41.4444 15.4871 41.2162 15.5831 41.0482 15.7523C40.8802 15.9216 40.786 16.1505 40.7863 16.389L40.7853 16.3918ZM32.6569 11.762C32.6559 12.0059 32.7516 12.2404 32.9232 12.4139C33.0947 12.5874 33.328 12.6858 33.5719 12.6875C33.6336 12.6874 33.6952 12.6939 33.7555 12.7069H41.9921L39.3196 8.13128H32.6531L32.6569 11.762ZM32.7468 25.4159C32.744 24.7081 33.022 24.0281 33.52 23.5251C34.0179 23.0221 34.695 22.7371 35.4028 22.7328C35.6432 22.7328 35.8737 22.8284 36.0436 22.9984C36.2136 23.1683 36.309 23.3987 36.309 23.639C36.309 23.8794 36.2136 24.1099 36.0436 24.2799C35.8737 24.4499 35.6432 24.5453 35.4028 24.5453C35.2305 24.5437 35.0616 24.5936 34.9176 24.6882C34.7736 24.7828 34.661 24.918 34.594 25.0767C34.527 25.2355 34.5086 25.4107 34.5413 25.5798C34.574 25.749 34.6562 25.9047 34.7775 26.0271C34.8988 26.1495 35.0537 26.233 35.2225 26.2672C35.3914 26.3014 35.5667 26.2847 35.726 26.2191C35.8853 26.1535 36.0216 26.0419 36.1175 25.8987C36.2134 25.7556 36.2646 25.5873 36.2646 25.415C36.2646 25.177 36.3591 24.9489 36.5274 24.7807C36.6956 24.6124 36.9238 24.5179 37.1617 24.5179C37.3996 24.5179 37.6278 24.6124 37.796 24.7807C37.9643 24.9489 38.0588 25.177 38.0588 25.415C38.0588 26.1196 37.7789 26.7955 37.2806 27.2937C36.7823 27.792 36.1065 28.0719 35.4018 28.0719C34.6972 28.0719 34.0213 27.792 33.5231 27.2937C33.0248 26.7955 32.7449 26.1196 32.7449 25.415L32.7468 25.4159ZM7.17814 25.4159C7.17531 24.7081 7.45339 24.0281 7.95133 23.5251C8.44926 23.0221 9.12639 22.7371 9.83416 22.7328C10.0745 22.7328 10.305 22.8284 10.475 22.9984C10.6449 23.1683 10.7404 23.3987 10.7404 23.639C10.7404 23.8794 10.6449 24.1099 10.475 24.2799C10.305 24.4499 10.0745 24.5453 9.83416 24.5453C9.66185 24.5437 9.49296 24.5936 9.34895 24.6882C9.20494 24.7828 9.09229 24.918 9.02529 25.0767C8.95829 25.2355 8.93996 25.4107 8.97263 25.5798C9.00531 25.749 9.08751 25.9047 9.20881 26.0271C9.3301 26.1495 9.48503 26.233 9.65391 26.2672C9.8228 26.3014 9.99803 26.2847 10.1574 26.2191C10.3167 26.1535 10.453 26.0419 10.5489 25.8987C10.6448 25.7556 10.696 25.5873 10.696 25.415C10.696 25.177 10.7905 24.9489 10.9587 24.7807C11.127 24.6124 11.3551 24.5179 11.5931 24.5179C11.831 24.5179 12.0592 24.6124 12.2274 24.7807C12.3956 24.9489 12.4901 25.177 12.4901 25.415C12.4901 26.1196 12.2102 26.7955 11.7119 27.2937C11.2137 27.792 10.5379 28.0719 9.83318 28.0719C9.12851 28.0719 8.4527 27.792 7.95442 27.2937C7.45615 26.7955 7.17622 26.1196 7.17622 25.415L7.17814 25.4159ZM5.38303 5.46842C5.14267 5.46842 4.91216 5.37301 4.7422 5.20305C4.57224 5.0331 4.47675 4.80252 4.47675 4.56217C4.47675 4.32181 4.57224 4.09124 4.7422 3.92128C4.91216 3.75132 5.14267 3.65591 5.38303 3.65591H24.6097C24.8501 3.65591 25.0806 3.75132 25.2506 3.92128C25.4205 4.09124 25.516 4.32181 25.516 4.56217C25.516 4.80252 25.4205 5.0331 25.2506 5.20305C25.0806 5.37301 24.8501 5.46842 24.6097 5.46842H5.38303Z" fill="#F16D7F"/>
</svg>
