<svg width="40" height="39" viewBox="0 0 40 39" fill="none" xmlns="http://www.w3.org/2000/svg">
<path d="M20.0832 35.9725L16.7296 38.7743L14.519 34.987L10.4225 36.4478L9.62825 32.1194L5.28728 32.076L5.99451 27.7282L1.92887 26.1822L4.06412 22.3506L0.765625 19.4858L4.06217 16.6192L1.92698 12.7882L5.99357 11.2425L5.28533 6.89947L9.62731 6.85702L10.4215 2.52861L14.5181 3.98847L16.7286 0.201172L20.0822 3.00296L23.4358 0.201172L25.6473 3.98941L29.7439 2.52861L30.5371 6.85796L34.879 6.90136L34.1718 11.2444L38.2374 12.7904L36.1022 16.622L39.3988 19.4868L36.1022 22.3534L38.2365 26.1853L34.1699 27.731L34.8781 32.0731L30.5352 32.1165L29.742 36.4459L25.6473 34.986L23.4358 38.7733L20.0832 35.9725ZM21.2484 34.5397L22.9498 35.9609L24.0715 34.0382L24.8367 32.7282L26.2551 33.2334L28.3333 33.9755L28.7362 31.7792L29.0115 30.2769L30.5197 30.2616L32.7245 30.2413L32.3651 28.0363L32.1197 26.5292L33.5293 25.994L35.5911 25.2083L34.509 23.2665L33.7689 21.938L34.9119 20.9457L36.5872 19.4868L34.9129 18.0375L33.7699 17.0433L34.51 15.7139L35.593 13.7709L33.5313 12.9873L32.1216 12.453L32.368 10.9458L32.7274 8.74194L30.5226 8.71977L29.0154 8.70443L28.74 7.20282L28.3381 5.00677L26.2589 5.74791L24.8406 6.25316L24.0744 4.94214L22.9517 3.01947L21.2493 4.44065L20.0851 5.41154L18.9209 4.44065L17.2195 3.01947L16.0977 4.94119L15.3326 6.25222L13.9132 5.74696L11.836 5.00488L11.4321 7.20187L11.1568 8.70349L9.64954 8.71882L7.44571 8.74005L7.80513 10.9448L8.0505 12.4502L6.64088 12.9864L4.5781 13.77L5.66121 15.7129L6.40129 17.0414L5.25833 18.0356L3.58298 19.4927L5.25732 20.9485L6.40028 21.9428L5.66021 23.2712L4.57716 25.2132L6.63799 25.9959L8.04862 26.5321L7.80224 28.0384L7.44376 30.2451L9.64759 30.2672L11.1548 30.2828L11.4302 31.7851L11.8331 33.9802L13.9123 33.2391L15.3315 32.7338L16.0967 34.0449L17.2195 35.9678L18.9209 34.5463L20.0851 33.5755L21.2484 34.5397ZM21.3624 22.4424C21.3624 19.6144 22.8744 18.0413 24.7043 18.0413C26.6425 18.0413 27.8927 19.5515 27.8927 22.2249C27.8927 25.1804 26.3613 26.6469 24.5932 26.6469C22.8744 26.6469 21.3817 25.2462 21.3624 22.4424ZM22.8319 22.3572C22.8097 24.1456 23.4908 25.505 24.6406 25.505C25.8744 25.505 26.428 24.1668 26.428 22.3166C26.428 20.6113 25.9381 19.1891 24.6406 19.1891C23.4706 19.1852 22.8319 20.5901 22.8319 22.3563V22.3572ZM15.4455 26.6085L23.5759 12.3875H24.7671L16.6369 26.6085H15.4455ZM12.3393 16.6163C12.3393 13.8145 13.8495 12.2377 15.6804 12.2377C17.6127 12.2377 18.8938 13.7488 18.8938 16.4232C18.8938 19.3777 17.3615 20.8433 15.5741 20.8433C13.8514 20.8433 12.3596 19.4424 12.3393 16.6173V16.6163ZM13.8292 16.5524C13.7867 18.3408 14.4485 19.6993 15.6166 19.7012C16.8503 19.7012 17.404 18.364 17.404 16.5128C17.404 14.8065 16.9141 13.3845 15.6166 13.3845C14.4485 13.3816 13.8292 14.7826 13.8292 16.5536V16.5524Z" fill="#F16D7F"/>
</svg>
